<svg xmlns="http://www.w3.org/2000/svg" viewBox="0 0 1200 675" role="img" aria-labelledby="title desc">
  <title id="title">Contractor Site placeholder preview</title>
  <desc id="desc">A stylized browser mockup for a contractor marketing website.</desc>
  <defs>
    <linearGradient id="bg" x1="0%" y1="0%" x2="100%" y2="100%">
      <stop offset="0%" stop-color="#173426" />
      <stop offset="55%" stop-color="#0b1727" />
      <stop offset="100%" stop-color="#214f3b" />
    </linearGradient>
  </defs>
  <rect width="1200" height="675" fill="url(#bg)" />
  <rect x="64" y="54" width="1072" height="567" rx="30" fill="#07111f" fill-opacity="0.9" />
  <rect x="96" y="88" width="1008" height="40" rx="20" fill="#112238" />
  <circle cx="126" cy="108" r="8" fill="#fca5a5" />
  <circle cx="152" cy="108" r="8" fill="#fcd34d" />
  <circle cx="178" cy="108" r="8" fill="#86efac" />
  <rect x="96" y="156" width="450" height="365" rx="26" fill="#1f5136" />
  <rect x="584" y="156" width="220" height="168" rx="22" fill="#10263f" />
  <rect x="832" y="156" width="272" height="168" rx="22" fill="#112b45" />
  <rect x="584" y="350" width="520" height="171" rx="24" fill="#0d1c30" />
  <text x="132" y="226" fill="#d1fae5" font-family="Verdana, Arial, sans-serif" font-size="24" letter-spacing="5">HOME SERVICES</text>
  <text x="132" y="286" fill="#f8fafc" font-family="Verdana, Arial, sans-serif" font-size="54" font-weight="700">Contractor</text>
  <text x="132" y="344" fill="#f8fafc" font-family="Verdana, Arial, sans-serif" font-size="54" font-weight="700">Site</text>
  <rect x="132" y="392" width="180" height="46" rx="23" fill="#34d399" />
  <text x="173" y="421" fill="#03120d" font-family="Verdana, Arial, sans-serif" font-size="22" font-weight="700">Get Quote</text>
  <rect x="620" y="190" width="148" height="18" rx="9" fill="#67e8f9" fill-opacity="0.7" />
  <rect x="620" y="222" width="128" height="14" rx="7" fill="#cbd5e1" fill-opacity="0.75" />
  <rect x="620" y="246" width="112" height="14" rx="7" fill="#cbd5e1" fill-opacity="0.4" />
  <rect x="868" y="190" width="116" height="96" rx="16" fill="#34d399" fill-opacity="0.28" />
  <rect x="1000" y="190" width="68" height="96" rx="16" fill="#ecfeff" fill-opacity="0.14" />
  <rect x="620" y="386" width="330" height="20" rx="10" fill="#f8fafc" fill-opacity="0.85" />
  <rect x="620" y="424" width="438" height="15" rx="7" fill="#cbd5e1" fill-opacity="0.75" />
  <rect x="620" y="450" width="404" height="15" rx="7" fill="#cbd5e1" fill-opacity="0.5" />
  <rect x="620" y="480" width="144" height="14" rx="7" fill="#34d399" fill-opacity="0.8" />
</svg>
