<svg xmlns="http://www.w3.org/2000/svg" viewBox="0 0 1200 675" role="img" aria-labelledby="title desc">
  <title id="title">Marketing Agency Site placeholder preview</title>
  <desc id="desc">A stylized browser mockup for a marketing agency website.</desc>
  <defs>
    <linearGradient id="bg" x1="0%" y1="0%" x2="100%" y2="100%">
      <stop offset="0%" stop-color="#40213e" />
      <stop offset="50%" stop-color="#120912" />
      <stop offset="100%" stop-color="#8a3f63" />
    </linearGradient>
  </defs>
  <rect width="1200" height="675" fill="url(#bg)" />
  <rect x="64" y="54" width="1072" height="567" rx="30" fill="#110914" fill-opacity="0.92" />
  <rect x="96" y="88" width="1008" height="40" rx="20" fill="#201027" />
  <circle cx="126" cy="108" r="8" fill="#fca5a5" />
  <circle cx="152" cy="108" r="8" fill="#fcd34d" />
  <circle cx="178" cy="108" r="8" fill="#86efac" />
  <rect x="96" y="156" width="504" height="365" rx="26" fill="#1f0d22" />
  <rect x="628" y="156" width="220" height="365" rx="24" fill="#2a1028" />
  <rect x="876" y="156" width="228" height="365" rx="24" fill="#32122c" />
  <text x="136" y="222" fill="#f9a8d4" font-family="Verdana, Arial, sans-serif" font-size="24" letter-spacing="5">DIGITAL STRATEGY</text>
  <text x="136" y="292" fill="#fdf2f8" font-family="Verdana, Arial, sans-serif" font-size="60" font-weight="700">Marketing</text>
  <text x="136" y="350" fill="#fdf2f8" font-family="Verdana, Arial, sans-serif" font-size="60" font-weight="700">Agency Site</text>
  <rect x="136" y="394" width="170" height="42" rx="21" fill="#fb7185" />
  <text x="178" y="420" fill="#23080f" font-family="Verdana, Arial, sans-serif" font-size="20" font-weight="700">Book Call</text>
  <rect x="136" y="456" width="264" height="12" rx="6" fill="#fbcfe8" fill-opacity="0.72" />
  <rect x="136" y="480" width="220" height="12" rx="6" fill="#fbcfe8" fill-opacity="0.46" />
  <rect x="664" y="188" width="148" height="18" rx="9" fill="#fdf2f8" fill-opacity="0.84" />
  <rect x="664" y="220" width="132" height="12" rx="6" fill="#fbcfe8" fill-opacity="0.5" />
  <rect x="664" y="270" width="148" height="18" rx="9" fill="#fdf2f8" fill-opacity="0.84" />
  <rect x="664" y="302" width="132" height="12" rx="6" fill="#fbcfe8" fill-opacity="0.5" />
  <rect x="664" y="352" width="148" height="18" rx="9" fill="#fdf2f8" fill-opacity="0.84" />
  <rect x="664" y="384" width="132" height="12" rx="6" fill="#fbcfe8" fill-opacity="0.5" />
  <rect x="912" y="188" width="156" height="136" rx="24" fill="#fb7185" fill-opacity="0.3" />
  <rect x="912" y="352" width="156" height="18" rx="9" fill="#fdf2f8" fill-opacity="0.84" />
  <rect x="912" y="384" width="132" height="12" rx="6" fill="#fbcfe8" fill-opacity="0.5" />
</svg>
