<svg xmlns="http://www.w3.org/2000/svg" viewBox="0 0 1200 675" role="img" aria-labelledby="title desc">
  <title id="title">Restaurant Site placeholder preview</title>
  <desc id="desc">A stylized browser mockup for a restaurant website.</desc>
  <defs>
    <linearGradient id="bg" x1="0%" y1="0%" x2="100%" y2="100%">
      <stop offset="0%" stop-color="#47210d" />
      <stop offset="52%" stop-color="#140b11" />
      <stop offset="100%" stop-color="#6b3415" />
    </linearGradient>
  </defs>
  <rect width="1200" height="675" fill="url(#bg)" />
  <rect x="64" y="54" width="1072" height="567" rx="30" fill="#12090e" fill-opacity="0.9" />
  <rect x="96" y="88" width="1008" height="40" rx="20" fill="#221019" />
  <circle cx="126" cy="108" r="8" fill="#fca5a5" />
  <circle cx="152" cy="108" r="8" fill="#fcd34d" />
  <circle cx="178" cy="108" r="8" fill="#86efac" />
  <rect x="96" y="156" width="1008" height="196" rx="26" fill="#73321a" />
  <rect x="96" y="380" width="316" height="141" rx="24" fill="#29131d" />
  <rect x="442" y="380" width="316" height="141" rx="24" fill="#30161f" />
  <rect x="788" y="380" width="316" height="141" rx="24" fill="#381920" />
  <text x="136" y="212" fill="#fde68a" font-family="Georgia, 'Times New Roman', serif" font-size="26" letter-spacing="6">DINING EXPERIENCE</text>
  <text x="136" y="290" fill="#fff7ed" font-family="Georgia, 'Times New Roman', serif" font-size="64" font-weight="700">Restaurant Site</text>
  <rect x="136" y="308" width="236" height="3" fill="#f59e0b" fill-opacity="0.75" />
  <rect x="136" y="334" width="160" height="44" rx="22" fill="#f59e0b" />
  <text x="178" y="362" fill="#1c0d06" font-family="Verdana, Arial, sans-serif" font-size="21" font-weight="700">Reserve</text>
  <rect x="124" y="406" width="122" height="18" rx="9" fill="#fde68a" fill-opacity="0.86" />
  <rect x="124" y="438" width="220" height="12" rx="6" fill="#fed7aa" fill-opacity="0.72" />
  <rect x="124" y="460" width="190" height="12" rx="6" fill="#fed7aa" fill-opacity="0.46" />
  <rect x="470" y="406" width="122" height="18" rx="9" fill="#fde68a" fill-opacity="0.86" />
  <rect x="470" y="438" width="220" height="12" rx="6" fill="#fed7aa" fill-opacity="0.72" />
  <rect x="470" y="460" width="190" height="12" rx="6" fill="#fed7aa" fill-opacity="0.46" />
  <rect x="816" y="406" width="122" height="18" rx="9" fill="#fde68a" fill-opacity="0.86" />
  <rect x="816" y="438" width="220" height="12" rx="6" fill="#fed7aa" fill-opacity="0.72" />
  <rect x="816" y="460" width="190" height="12" rx="6" fill="#fed7aa" fill-opacity="0.46" />
</svg>
