<svg xmlns="http://www.w3.org/2000/svg" viewBox="0 0 1200 675" role="img" aria-labelledby="title desc">
  <title id="title">SaaS Startup Site placeholder preview</title>
  <desc id="desc">A stylized browser mockup for a SaaS landing page.</desc>
  <defs>
    <linearGradient id="bg" x1="0%" y1="0%" x2="100%" y2="100%">
      <stop offset="0%" stop-color="#102047" />
      <stop offset="52%" stop-color="#080f1d" />
      <stop offset="100%" stop-color="#1f4fd0" />
    </linearGradient>
  </defs>
  <rect width="1200" height="675" fill="url(#bg)" />
  <rect x="64" y="54" width="1072" height="567" rx="30" fill="#050b16" fill-opacity="0.9" />
  <rect x="96" y="88" width="1008" height="40" rx="20" fill="#101a32" />
  <circle cx="126" cy="108" r="8" fill="#fca5a5" />
  <circle cx="152" cy="108" r="8" fill="#fcd34d" />
  <circle cx="178" cy="108" r="8" fill="#86efac" />
  <rect x="96" y="156" width="468" height="365" rx="26" fill="#081428" />
  <rect x="592" y="156" width="512" height="365" rx="26" fill="#0f1d39" />
  <text x="136" y="222" fill="#93c5fd" font-family="Verdana, Arial, sans-serif" font-size="24" letter-spacing="5">B2B SOFTWARE</text>
  <text x="136" y="286" fill="#f8fafc" font-family="Verdana, Arial, sans-serif" font-size="58" font-weight="700">SaaS Startup</text>
  <text x="136" y="344" fill="#f8fafc" font-family="Verdana, Arial, sans-serif" font-size="58" font-weight="700">Site</text>
  <rect x="136" y="388" width="164" height="42" rx="21" fill="#60a5fa" />
  <text x="178" y="414" fill="#08111f" font-family="Verdana, Arial, sans-serif" font-size="20" font-weight="700">Start Trial</text>
  <rect x="136" y="454" width="238" height="12" rx="6" fill="#cbd5e1" fill-opacity="0.72" />
  <rect x="136" y="478" width="206" height="12" rx="6" fill="#cbd5e1" fill-opacity="0.46" />
  <rect x="632" y="190" width="180" height="140" rx="24" fill="#2563eb" fill-opacity="0.35" />
  <rect x="838" y="190" width="226" height="40" rx="20" fill="#e2e8f0" fill-opacity="0.1" />
  <rect x="838" y="246" width="226" height="16" rx="8" fill="#e2e8f0" fill-opacity="0.78" />
  <rect x="838" y="276" width="196" height="16" rx="8" fill="#cbd5e1" fill-opacity="0.48" />
  <rect x="632" y="364" width="432" height="20" rx="10" fill="#f8fafc" fill-opacity="0.86" />
  <rect x="632" y="402" width="390" height="14" rx="7" fill="#cbd5e1" fill-opacity="0.72" />
  <rect x="632" y="428" width="354" height="14" rx="7" fill="#cbd5e1" fill-opacity="0.48" />
  <rect x="632" y="460" width="128" height="14" rx="7" fill="#60a5fa" fill-opacity="0.86" />
</svg>
