<svg xmlns="http://www.w3.org/2000/svg" viewBox="0 0 1200 900" role="img" aria-labelledby="title desc">
  <title id="title">Editorial studio illustration</title>
  <desc id="desc">An abstract creator studio with a microphone, desk, and editorial screen elements.</desc>
  <defs>
    <linearGradient id="studioBg" x1="120" x2="1082" y1="108" y2="814" gradientUnits="userSpaceOnUse">
      <stop offset="0" stop-color="#f8efe4"/>
      <stop offset=".55" stop-color="#f1d0b4"/>
      <stop offset="1" stop-color="#d8a27b"/>
    </linearGradient>
    <linearGradient id="desk" x1="369" x2="840" y1="578" y2="764" gradientUnits="userSpaceOnUse">
      <stop offset="0" stop-color="#1c2433"/>
      <stop offset="1" stop-color="#37485d"/>
    </linearGradient>
  </defs>
  <rect width="1200" height="900" rx="42" fill="url(#studioBg)"/>
  <rect x="118" y="127" width="964" height="523" rx="36" fill="#fffaf4" opacity=".82"/>
  <rect x="182" y="188" width="400" height="234" rx="24" fill="#1c2433"/>
  <path d="M228 247h302" stroke="#f7e7d0" stroke-linecap="round" stroke-width="18"/>
  <path d="M228 295h216" stroke="#d8a27b" stroke-linecap="round" stroke-width="18"/>
  <path d="M228 343h272" stroke="#f7e7d0" stroke-linecap="round" stroke-width="18" opacity=".7"/>
  <rect x="643" y="187" width="305" height="337" rx="28" fill="#efe1d0"/>
  <circle cx="796" cy="296" r="92" fill="#bb6f5f"/>
  <path d="M740 297c0-29 8-53 24-72 16-19 37-29 62-29 27 0 48 10 63 29 16 19 24 43 24 72 0 31-8 56-24 76-15 20-36 30-63 30-25 0-46-10-62-30-16-20-24-45-24-76Z" fill="#f6ceb2"/>
  <path d="M709 541c30-65 92-97 186-97 96 0 160 34 192 102H709Z" fill="#37485d"/>
  <path d="M280 707c48-52 115-78 201-78h282c97 0 177 31 239 93H280v-15Z" fill="url(#desk)"/>
  <rect x="454" y="557" width="94" height="126" rx="38" fill="#1c2433"/>
  <rect x="488" y="444" width="26" height="165" rx="13" fill="#1c2433"/>
  <circle cx="501" cy="411" r="50" fill="#bb6f5f"/>
  <rect x="293" y="540" width="140" height="96" rx="16" fill="#fffaf4"/>
  <path d="M324 574h78" stroke="#1c2433" stroke-linecap="round" stroke-width="14"/>
  <path d="M324 609h52" stroke="#bb6f5f" stroke-linecap="round" stroke-width="14"/>
  <g fill="#fff7ee" opacity=".82">
    <circle cx="148" cy="732" r="18"/>
    <circle cx="1027" cy="176" r="16"/>
    <circle cx="1051" cy="730" r="28"/>
  </g>
</svg>
