<svg width="1200" height="900" viewBox="0 0 1200 900" fill="none" xmlns="http://www.w3.org/2000/svg">
  <rect width="1200" height="900" fill="#F5F5F4"/>
  <ellipse cx="600" cy="480" rx="400" ry="230" fill="#E7E5E4"/>
  <ellipse cx="600" cy="480" rx="336" ry="186" fill="#D6D3D1"/>
  <path d="M430 500C454 410 542 360 624 376C706 392 756 460 746 536C734 606 668 648 596 642C514 636 450 590 430 500Z" fill="#7F1D1D"/>
  <rect x="438" y="388" width="20" height="90" rx="10" fill="#F5F5F4"/>
  <rect x="712" y="414" width="20" height="90" rx="10" fill="#F5F5F4"/>
  <circle cx="546" cy="570" r="30" fill="#EA580C"/>
  <circle cx="498" cy="596" r="24" fill="#F97316"/>
  <circle cx="648" cy="562" r="26" fill="#FB923C"/>
  <circle cx="690" cy="536" r="20" fill="#EA580C"/>
  <path d="M504 448C544 420 598 414 652 430" stroke="#14532D" stroke-width="16" stroke-linecap="round"/>
</svg>
