<svg width="1600" height="980" viewBox="0 0 1600 980" fill="none" xmlns="http://www.w3.org/2000/svg" role="img" aria-label="OrbitOps dashboard mockup">
  <defs>
    <linearGradient id="bg" x1="0" y1="0" x2="1600" y2="980" gradientUnits="userSpaceOnUse">
      <stop stop-color="#0F172A"/>
      <stop offset="1" stop-color="#1E293B"/>
    </linearGradient>
    <linearGradient id="panel" x1="0" y1="0" x2="760" y2="520" gradientUnits="userSpaceOnUse">
      <stop stop-color="#111827"/>
      <stop offset="1" stop-color="#0B1220"/>
    </linearGradient>
    <linearGradient id="line" x1="0" y1="0" x2="1" y2="1">
      <stop stop-color="#22D3EE"/>
      <stop offset="1" stop-color="#38BDF8"/>
    </linearGradient>
  </defs>

  <rect width="1600" height="980" rx="40" fill="url(#bg)"/>
  <rect x="34" y="28" width="1532" height="924" rx="30" fill="#020617" stroke="#1E293B" stroke-width="2"/>

  <rect x="72" y="76" width="265" height="828" rx="20" fill="#0F172A" stroke="#1E293B"/>
  <rect x="368" y="76" width="1160" height="90" rx="20" fill="#0F172A" stroke="#1E293B"/>
  <rect x="368" y="194" width="560" height="340" rx="20" fill="url(#panel)" stroke="#1E293B"/>
  <rect x="948" y="194" width="580" height="340" rx="20" fill="url(#panel)" stroke="#1E293B"/>
  <rect x="368" y="560" width="760" height="344" rx="20" fill="url(#panel)" stroke="#1E293B"/>
  <rect x="1148" y="560" width="380" height="344" rx="20" fill="url(#panel)" stroke="#1E293B"/>

  <circle cx="101" cy="121" r="8" fill="#22D3EE"/>
  <rect x="120" y="112" width="120" height="18" rx="9" fill="#0EA5E9" fill-opacity="0.25"/>

  <rect x="98" y="184" width="212" height="46" rx="12" fill="#0B1220" stroke="#1E293B"/>
  <rect x="98" y="248" width="212" height="46" rx="12" fill="#0B1220" stroke="#1E293B"/>
  <rect x="98" y="312" width="212" height="46" rx="12" fill="#0B1220" stroke="#1E293B"/>
  <rect x="98" y="376" width="212" height="46" rx="12" fill="#0B1220" stroke="#1E293B"/>
  <rect x="98" y="440" width="212" height="46" rx="12" fill="#0B1220" stroke="#1E293B"/>

  <rect x="398" y="106" width="210" height="30" rx="14" fill="#0EA5E9" fill-opacity="0.2"/>
  <rect x="620" y="106" width="150" height="30" rx="14" fill="#1E293B"/>
  <rect x="1330" y="106" width="168" height="30" rx="14" fill="#22D3EE" fill-opacity="0.18"/>

  <rect x="398" y="232" width="208" height="16" rx="8" fill="#334155"/>
  <rect x="398" y="260" width="130" height="12" rx="6" fill="#1E293B"/>

  <rect x="398" y="306" width="500" height="192" rx="16" fill="#020617" stroke="#1E293B"/>
  <path d="M430 448L500 392L590 416L680 336L760 362L850 300" stroke="url(#line)" stroke-width="8" stroke-linecap="round" stroke-linejoin="round"/>
  <circle cx="500" cy="392" r="7" fill="#22D3EE"/>
  <circle cx="590" cy="416" r="7" fill="#22D3EE"/>
  <circle cx="680" cy="336" r="7" fill="#22D3EE"/>
  <circle cx="760" cy="362" r="7" fill="#22D3EE"/>
  <circle cx="850" cy="300" r="7" fill="#22D3EE"/>

  <rect x="978" y="232" width="220" height="16" rx="8" fill="#334155"/>
  <rect x="978" y="260" width="120" height="12" rx="6" fill="#1E293B"/>

  <rect x="978" y="304" width="520" height="64" rx="14" fill="#0B1220" stroke="#1E293B"/>
  <rect x="1000" y="323" width="180" height="12" rx="6" fill="#334155"/>
  <rect x="1000" y="342" width="260" height="10" rx="5" fill="#1E293B"/>
  <rect x="1368" y="324" width="104" height="24" rx="12" fill="#F59E0B" fill-opacity="0.24"/>

  <rect x="978" y="386" width="520" height="64" rx="14" fill="#0B1220" stroke="#1E293B"/>
  <rect x="1000" y="405" width="180" height="12" rx="6" fill="#334155"/>
  <rect x="1000" y="424" width="260" height="10" rx="5" fill="#1E293B"/>
  <rect x="1368" y="406" width="104" height="24" rx="12" fill="#10B981" fill-opacity="0.24"/>

  <rect x="398" y="598" width="230" height="16" rx="8" fill="#334155"/>
  <rect x="398" y="626" width="140" height="12" rx="6" fill="#1E293B"/>

  <rect x="398" y="670" width="700" height="54" rx="12" fill="#0B1220" stroke="#1E293B"/>
  <rect x="418" y="688" width="260" height="12" rx="6" fill="#334155"/>
  <rect x="940" y="685" width="140" height="16" rx="8" fill="#22D3EE" fill-opacity="0.25"/>

  <rect x="398" y="742" width="700" height="54" rx="12" fill="#0B1220" stroke="#1E293B"/>
  <rect x="418" y="760" width="260" height="12" rx="6" fill="#334155"/>
  <rect x="940" y="757" width="140" height="16" rx="8" fill="#38BDF8" fill-opacity="0.22"/>

  <rect x="398" y="814" width="700" height="54" rx="12" fill="#0B1220" stroke="#1E293B"/>
  <rect x="418" y="832" width="260" height="12" rx="6" fill="#334155"/>
  <rect x="940" y="829" width="140" height="16" rx="8" fill="#22D3EE" fill-opacity="0.18"/>

  <rect x="1178" y="598" width="320" height="130" rx="16" fill="#0B1220" stroke="#1E293B"/>
  <rect x="1200" y="624" width="180" height="12" rx="6" fill="#334155"/>
  <rect x="1200" y="645" width="140" height="10" rx="5" fill="#1E293B"/>
  <rect x="1200" y="676" width="276" height="30" rx="10" fill="#22D3EE" fill-opacity="0.18"/>

  <rect x="1178" y="744" width="320" height="130" rx="16" fill="#0B1220" stroke="#1E293B"/>
  <rect x="1200" y="770" width="180" height="12" rx="6" fill="#334155"/>
  <rect x="1200" y="791" width="140" height="10" rx="5" fill="#1E293B"/>
  <rect x="1200" y="822" width="276" height="30" rx="10" fill="#38BDF8" fill-opacity="0.18"/>

  <text x="118" y="906" fill="#64748B" font-family="Arial, sans-serif" font-size="16">OrbitOps workflow command center mockup</text>
</svg>
