<svg width="1600" height="980" viewBox="0 0 1600 980" fill="none" xmlns="http://www.w3.org/2000/svg" role="img" aria-label="OrbitOps dashboard mockup">
  <defs>
    <linearGradient id="bg" x1="0" y1="0" x2="1600" y2="980" gradientUnits="userSpaceOnUse">
      <stop stop-color="#07111F"/>
      <stop offset="1" stop-color="#0C1728"/>
    </linearGradient>
    <linearGradient id="panel" x1="0" y1="0" x2="700" y2="520" gradientUnits="userSpaceOnUse">
      <stop stop-color="#111E31"/>
      <stop offset="1" stop-color="#091322"/>
    </linearGradient>
    <linearGradient id="accent" x1="0" y1="0" x2="1" y2="1">
      <stop stop-color="#67E8F9"/>
      <stop offset="1" stop-color="#38BDF8"/>
    </linearGradient>
    <linearGradient id="mint" x1="0" y1="0" x2="1" y2="1">
      <stop stop-color="#6EE7B7"/>
      <stop offset="1" stop-color="#34D399"/>
    </linearGradient>
  </defs>

  <rect width="1600" height="980" rx="42" fill="url(#bg)"/>
  <rect x="34" y="32" width="1532" height="916" rx="32" fill="#020914" stroke="#172436" stroke-width="2"/>

  <rect x="74" y="78" width="252" height="824" rx="24" fill="#081120" stroke="#172436"/>
  <rect x="350" y="78" width="1176" height="94" rx="24" fill="#081120" stroke="#172436"/>
  <rect x="350" y="196" width="764" height="338" rx="26" fill="url(#panel)" stroke="#1A2A3F"/>
  <rect x="1138" y="196" width="388" height="338" rx="26" fill="url(#panel)" stroke="#1A2A3F"/>
  <rect x="350" y="560" width="764" height="342" rx="26" fill="url(#panel)" stroke="#1A2A3F"/>
  <rect x="1138" y="560" width="388" height="342" rx="26" fill="url(#panel)" stroke="#1A2A3F"/>

  <circle cx="104" cy="118" r="8" fill="#38BDF8"/>
  <circle cx="128" cy="118" r="8" fill="#1E293B"/>
  <circle cx="152" cy="118" r="8" fill="#1E293B"/>
  <rect x="180" y="108" width="98" height="20" rx="10" fill="#0EA5E9" fill-opacity="0.18"/>
  <text x="188" y="122" fill="#BFEAFE" font-family="Arial, sans-serif" font-size="11" letter-spacing="1.4">ORBITOPS</text>

  <rect x="100" y="176" width="200" height="48" rx="14" fill="#0F1A2B" stroke="#1A2A3F"/>
  <rect x="114" y="194" width="84" height="10" rx="5" fill="#CBD5E1" fill-opacity="0.16"/>
  <rect x="208" y="190" width="60" height="18" rx="9" fill="#38BDF8" fill-opacity="0.18"/>

  <rect x="100" y="246" width="200" height="48" rx="14" fill="#0F1A2B" stroke="#1A2A3F"/>
  <rect x="114" y="264" width="88" height="10" rx="5" fill="#CBD5E1" fill-opacity="0.16"/>
  <rect x="216" y="260" width="54" height="18" rx="9" fill="#34D399" fill-opacity="0.16"/>

  <rect x="100" y="316" width="200" height="48" rx="14" fill="#0F1A2B" stroke="#1A2A3F"/>
  <rect x="114" y="334" width="102" height="10" rx="5" fill="#CBD5E1" fill-opacity="0.16"/>

  <rect x="100" y="386" width="200" height="48" rx="14" fill="#0F1A2B" stroke="#1A2A3F"/>
  <rect x="114" y="404" width="88" height="10" rx="5" fill="#CBD5E1" fill-opacity="0.16"/>

  <rect x="100" y="456" width="200" height="48" rx="14" fill="#0F1A2B" stroke="#1A2A3F"/>
  <rect x="114" y="474" width="74" height="10" rx="5" fill="#CBD5E1" fill-opacity="0.16"/>

  <rect x="100" y="640" width="200" height="208" rx="20" fill="#0B1524" stroke="#172436"/>
  <text x="122" y="676" fill="#7DD3FC" font-family="Arial, sans-serif" font-size="11" letter-spacing="1.8">HEALTH</text>
  <text x="122" y="714" fill="#FFFFFF" font-family="Arial, sans-serif" font-size="36" font-weight="700">99.4%</text>
  <rect x="122" y="742" width="156" height="10" rx="5" fill="#122135"/>
  <rect x="122" y="742" width="124" height="10" rx="5" fill="url(#accent)"/>
  <text x="122" y="784" fill="#94A3B8" font-family="Arial, sans-serif" font-size="13">Workflow SLA adherence</text>
  <rect x="122" y="806" width="78" height="22" rx="11" fill="#34D399" fill-opacity="0.16"/>
  <text x="136" y="821" fill="#A7F3D0" font-family="Arial, sans-serif" font-size="11">Live healthy</text>

  <rect x="378" y="108" width="188" height="34" rx="17" fill="#38BDF8" fill-opacity="0.16"/>
  <text x="402" y="130" fill="#BFEAFE" font-family="Arial, sans-serif" font-size="11" letter-spacing="1.6">COMMAND BOARD</text>
  <rect x="584" y="108" width="156" height="34" rx="17" fill="#122135"/>
  <text x="610" y="130" fill="#94A3B8" font-family="Arial, sans-serif" font-size="11" letter-spacing="1.6">AMER + EMEA</text>
  <rect x="1312" y="108" width="182" height="34" rx="17" fill="#34D399" fill-opacity="0.16"/>
  <text x="1342" y="130" fill="#A7F3D0" font-family="Arial, sans-serif" font-size="11" letter-spacing="1.6">ALL SYSTEMS HEALTHY</text>

  <rect x="384" y="220" width="218" height="108" rx="20" fill="#0A1322" stroke="#1A2A3F"/>
  <text x="408" y="252" fill="#7DD3FC" font-family="Arial, sans-serif" font-size="11" letter-spacing="1.6">QUEUE THROUGHPUT</text>
  <text x="408" y="294" fill="#FFFFFF" font-family="Arial, sans-serif" font-size="36" font-weight="700">128</text>
  <text x="478" y="294" fill="#94A3B8" font-family="Arial, sans-serif" font-size="15">runs today</text>
  <rect x="408" y="308" width="126" height="14" rx="7" fill="#38BDF8" fill-opacity="0.16"/>
  <text x="420" y="318" fill="#CFFAFE" font-family="Arial, sans-serif" font-size="11">+14% vs last week</text>

  <rect x="620" y="220" width="218" height="108" rx="20" fill="#0A1322" stroke="#1A2A3F"/>
  <text x="644" y="252" fill="#86EFAC" font-family="Arial, sans-serif" font-size="11" letter-spacing="1.6">AUTO ROUTED</text>
  <text x="644" y="294" fill="#FFFFFF" font-family="Arial, sans-serif" font-size="36" font-weight="700">91%</text>
  <text x="714" y="294" fill="#94A3B8" font-family="Arial, sans-serif" font-size="15">of exceptions</text>
  <rect x="644" y="308" width="132" height="14" rx="7" fill="#34D399" fill-opacity="0.16"/>
  <text x="656" y="318" fill="#D1FAE5" font-family="Arial, sans-serif" font-size="11">routing policy enabled</text>

  <rect x="856" y="220" width="230" height="108" rx="20" fill="#0A1322" stroke="#1A2A3F"/>
  <text x="880" y="252" fill="#FDE68A" font-family="Arial, sans-serif" font-size="11" letter-spacing="1.6">OPEN RISKS</text>
  <text x="880" y="294" fill="#FFFFFF" font-family="Arial, sans-serif" font-size="36" font-weight="700">03</text>
  <text x="930" y="294" fill="#94A3B8" font-family="Arial, sans-serif" font-size="15">priority escalations</text>
  <rect x="880" y="308" width="146" height="14" rx="7" fill="#F59E0B" fill-opacity="0.16"/>
  <text x="892" y="318" fill="#FDE68A" font-family="Arial, sans-serif" font-size="11">needs assignment review</text>

  <text x="384" y="366" fill="#FFFFFF" font-family="Arial, sans-serif" font-size="18" font-weight="700">Workflow throughput trend</text>
  <text x="384" y="392" fill="#94A3B8" font-family="Arial, sans-serif" font-size="13">Renewals, onboarding, escalations</text>
  <rect x="384" y="418" width="700" height="92" rx="22" fill="#08101C" stroke="#1A2A3F"/>
  <path d="M418 476L494 450L566 458L642 420L718 434L794 398L870 410L946 372L1022 384" stroke="url(#accent)" stroke-width="8" stroke-linecap="round" stroke-linejoin="round"/>
  <path d="M418 454L494 464L566 438L642 446L718 428L794 436L870 414L946 420L1022 396" stroke="url(#mint)" stroke-width="6" stroke-linecap="round" stroke-linejoin="round" opacity="0.9"/>
  <circle cx="642" cy="420" r="7" fill="#67E8F9"/>
  <circle cx="794" cy="398" r="7" fill="#67E8F9"/>
  <circle cx="946" cy="372" r="7" fill="#67E8F9"/>

  <text x="1166" y="234" fill="#FFFFFF" font-family="Arial, sans-serif" font-size="18" font-weight="700">Active queue health</text>
  <text x="1166" y="260" fill="#94A3B8" font-family="Arial, sans-serif" font-size="13">By workflow cluster</text>

  <rect x="1166" y="290" width="332" height="70" rx="18" fill="#0A1322" stroke="#1A2A3F"/>
  <text x="1190" y="320" fill="#FFFFFF" font-family="Arial, sans-serif" font-size="14" font-weight="700">Enterprise renewal approvals</text>
  <text x="1190" y="343" fill="#94A3B8" font-family="Arial, sans-serif" font-size="12">14 requests in flight across AMER and EMEA</text>
  <rect x="1392" y="312" width="82" height="22" rx="11" fill="#34D399" fill-opacity="0.16"/>
  <text x="1415" y="327" fill="#A7F3D0" font-family="Arial, sans-serif" font-size="11">Healthy</text>

  <rect x="1166" y="378" width="332" height="70" rx="18" fill="#0A1322" stroke="#1A2A3F"/>
  <text x="1190" y="408" fill="#FFFFFF" font-family="Arial, sans-serif" font-size="14" font-weight="700">New logo onboarding handoff</text>
  <text x="1190" y="431" fill="#94A3B8" font-family="Arial, sans-serif" font-size="12">3 owner conflicts detected before kickoff</text>
  <rect x="1386" y="400" width="88" height="22" rx="11" fill="#F59E0B" fill-opacity="0.16"/>
  <text x="1401" y="415" fill="#FDE68A" font-family="Arial, sans-serif" font-size="11">Attention</text>

  <rect x="1166" y="466" width="332" height="50" rx="18" fill="#0A1322" stroke="#1A2A3F"/>
  <text x="1190" y="497" fill="#FFFFFF" font-family="Arial, sans-serif" font-size="14" font-weight="700">Support escalation governance</text>
  <rect x="1388" y="481" width="86" height="20" rx="10" fill="#38BDF8" fill-opacity="0.16"/>
  <text x="1401" y="495" fill="#BFEAFE" font-family="Arial, sans-serif" font-size="11">Stable</text>

  <text x="384" y="600" fill="#FFFFFF" font-family="Arial, sans-serif" font-size="18" font-weight="700">Live workflow runs</text>
  <text x="384" y="626" fill="#94A3B8" font-family="Arial, sans-serif" font-size="13">Owners, deadlines, queue state, and risk signals</text>

  <rect x="384" y="658" width="700" height="64" rx="18" fill="#0A1322" stroke="#1A2A3F"/>
  <text x="408" y="695" fill="#FFFFFF" font-family="Arial, sans-serif" font-size="14" font-weight="700">Renewal approvals</text>
  <text x="576" y="695" fill="#94A3B8" font-family="Arial, sans-serif" font-size="13">Owner: RevOps West</text>
  <rect x="946" y="680" width="114" height="24" rx="12" fill="#34D399" fill-opacity="0.16"/>
  <text x="978" y="696" fill="#A7F3D0" font-family="Arial, sans-serif" font-size="11">On track</text>

  <rect x="384" y="738" width="700" height="64" rx="18" fill="#0A1322" stroke="#1A2A3F"/>
  <text x="408" y="775" fill="#FFFFFF" font-family="Arial, sans-serif" font-size="14" font-weight="700">Enterprise onboarding</text>
  <text x="596" y="775" fill="#94A3B8" font-family="Arial, sans-serif" font-size="13">Owner: Services Ops</text>
  <rect x="930" y="760" width="130" height="24" rx="12" fill="#F59E0B" fill-opacity="0.16"/>
  <text x="956" y="776" fill="#FDE68A" font-family="Arial, sans-serif" font-size="11">Needs review</text>

  <rect x="384" y="818" width="700" height="64" rx="18" fill="#0A1322" stroke="#1A2A3F"/>
  <text x="408" y="855" fill="#FFFFFF" font-family="Arial, sans-serif" font-size="14" font-weight="700">Billing exception routing</text>
  <text x="612" y="855" fill="#94A3B8" font-family="Arial, sans-serif" font-size="13">Owner: Finance Systems</text>
  <rect x="942" y="840" width="118" height="24" rx="12" fill="#38BDF8" fill-opacity="0.16"/>
  <text x="971" y="856" fill="#BFEAFE" font-family="Arial, sans-serif" font-size="11">Monitoring</text>

  <text x="1166" y="600" fill="#FFFFFF" font-family="Arial, sans-serif" font-size="18" font-weight="700">AI change brief</text>
  <text x="1166" y="626" fill="#94A3B8" font-family="Arial, sans-serif" font-size="13">Based on last 7 days of execution data</text>

  <rect x="1166" y="658" width="332" height="94" rx="20" fill="#0A1322" stroke="#1A2A3F"/>
  <text x="1190" y="690" fill="#7DD3FC" font-family="Arial, sans-serif" font-size="11" letter-spacing="1.6">RECOMMENDATION</text>
  <text x="1190" y="720" fill="#FFFFFF" font-family="Arial, sans-serif" font-size="14" font-weight="700">Merge billing validation into onboarding kickoff</text>
  <text x="1190" y="742" fill="#94A3B8" font-family="Arial, sans-serif" font-size="12">Estimated recovery: 12 manager hours / week</text>

  <rect x="1166" y="772" width="332" height="94" rx="20" fill="#0A1322" stroke="#1A2A3F"/>
  <text x="1190" y="804" fill="#86EFAC" font-family="Arial, sans-serif" font-size="11" letter-spacing="1.6">NEXT STEP</text>
  <text x="1190" y="834" fill="#FFFFFF" font-family="Arial, sans-serif" font-size="14" font-weight="700">Review owner rule with finance systems and services ops</text>
  <text x="1190" y="856" fill="#94A3B8" font-family="Arial, sans-serif" font-size="12">Suggested rollout window: next Tuesday</text>
</svg>
