<svg width="1600" height="1080" viewBox="0 0 1600 1080" fill="none" xmlns="http://www.w3.org/2000/svg" role="img" aria-label="OrbitOps workflow studio mockup">
  <defs>
    <linearGradient id="bg" x1="0" y1="0" x2="1600" y2="1080" gradientUnits="userSpaceOnUse">
      <stop stop-color="#07111F"/>
      <stop offset="1" stop-color="#0C1728"/>
    </linearGradient>
    <linearGradient id="panel" x1="0" y1="0" x2="800" y2="640" gradientUnits="userSpaceOnUse">
      <stop stop-color="#101D31"/>
      <stop offset="1" stop-color="#08111F"/>
    </linearGradient>
    <linearGradient id="accent" x1="0" y1="0" x2="1" y2="1">
      <stop stop-color="#67E8F9"/>
      <stop offset="1" stop-color="#38BDF8"/>
    </linearGradient>
  </defs>

  <rect width="1600" height="1080" rx="42" fill="url(#bg)"/>
  <rect x="34" y="34" width="1532" height="1012" rx="32" fill="#020914" stroke="#172436" stroke-width="2"/>

  <rect x="74" y="78" width="276" height="924" rx="24" fill="#081120" stroke="#172436"/>
  <rect x="374" y="78" width="1152" height="92" rx="24" fill="#081120" stroke="#172436"/>
  <rect x="374" y="194" width="800" height="764" rx="28" fill="url(#panel)" stroke="#1A2A3F"/>
  <rect x="1198" y="194" width="328" height="764" rx="28" fill="url(#panel)" stroke="#1A2A3F"/>

  <circle cx="104" cy="118" r="8" fill="#38BDF8"/>
  <rect x="124" y="109" width="120" height="18" rx="9" fill="#0EA5E9" fill-opacity="0.18"/>
  <text x="132" y="122" fill="#BFEAFE" font-family="Arial, sans-serif" font-size="11" letter-spacing="1.6">WORKFLOW STUDIO</text>

  <rect x="98" y="184" width="228" height="54" rx="16" fill="#0F1A2B" stroke="#1A2A3F"/>
  <text x="122" y="217" fill="#FFFFFF" font-family="Arial, sans-serif" font-size="14" font-weight="700">Enterprise onboarding</text>
  <rect x="98" y="256" width="228" height="54" rx="16" fill="#0B1524" stroke="#172436"/>
  <text x="122" y="289" fill="#CBD5E1" font-family="Arial, sans-serif" font-size="14">Renewal governance</text>
  <rect x="98" y="328" width="228" height="54" rx="16" fill="#0B1524" stroke="#172436"/>
  <text x="122" y="361" fill="#CBD5E1" font-family="Arial, sans-serif" font-size="14">Support escalations</text>

  <rect x="98" y="424" width="228" height="220" rx="20" fill="#0B1524" stroke="#172436"/>
  <text x="122" y="460" fill="#7DD3FC" font-family="Arial, sans-serif" font-size="11" letter-spacing="1.6">LIBRARY</text>
  <rect x="122" y="486" width="180" height="40" rx="12" fill="#101C2D"/>
  <text x="142" y="511" fill="#E2E8F0" font-family="Arial, sans-serif" font-size="13">Approval gate</text>
  <rect x="122" y="540" width="180" height="40" rx="12" fill="#101C2D"/>
  <text x="142" y="565" fill="#E2E8F0" font-family="Arial, sans-serif" font-size="13">SLA timer</text>
  <rect x="122" y="594" width="180" height="40" rx="12" fill="#101C2D"/>
  <text x="142" y="619" fill="#E2E8F0" font-family="Arial, sans-serif" font-size="13">Owner assignment</text>

  <rect x="398" y="108" width="180" height="32" rx="16" fill="#38BDF8" fill-opacity="0.16"/>
  <text x="424" y="129" fill="#BFEAFE" font-family="Arial, sans-serif" font-size="11" letter-spacing="1.6">DRAFT ENVIRONMENT</text>
  <rect x="1298" y="108" width="198" height="32" rx="16" fill="#34D399" fill-opacity="0.16"/>
  <text x="1328" y="129" fill="#A7F3D0" font-family="Arial, sans-serif" font-size="11" letter-spacing="1.6">VERSION 12 READY</text>

  <rect x="410" y="216" width="728" height="720" rx="24" fill="#07101C" stroke="#1A2A3F"/>
  <g opacity="0.16">
    <path d="M446 252H1098" stroke="#94A3B8" stroke-width="1"/>
    <path d="M446 340H1098" stroke="#94A3B8" stroke-width="1"/>
    <path d="M446 428H1098" stroke="#94A3B8" stroke-width="1"/>
    <path d="M446 516H1098" stroke="#94A3B8" stroke-width="1"/>
    <path d="M446 604H1098" stroke="#94A3B8" stroke-width="1"/>
    <path d="M446 692H1098" stroke="#94A3B8" stroke-width="1"/>
    <path d="M446 780H1098" stroke="#94A3B8" stroke-width="1"/>
    <path d="M446 868H1098" stroke="#94A3B8" stroke-width="1"/>
    <path d="M446 252V900" stroke="#94A3B8" stroke-width="1"/>
    <path d="M560 252V900" stroke="#94A3B8" stroke-width="1"/>
    <path d="M674 252V900" stroke="#94A3B8" stroke-width="1"/>
    <path d="M788 252V900" stroke="#94A3B8" stroke-width="1"/>
    <path d="M902 252V900" stroke="#94A3B8" stroke-width="1"/>
    <path d="M1016 252V900" stroke="#94A3B8" stroke-width="1"/>
  </g>

  <rect x="474" y="276" width="180" height="82" rx="20" fill="#0E1B2C" stroke="#223449"/>
  <text x="498" y="310" fill="#7DD3FC" font-family="Arial, sans-serif" font-size="11" letter-spacing="1.4">TRIGGER</text>
  <text x="498" y="338" fill="#FFFFFF" font-family="Arial, sans-serif" font-size="15" font-weight="700">New account closed-won</text>

  <rect x="760" y="276" width="180" height="82" rx="20" fill="#0E1B2C" stroke="#223449"/>
  <text x="784" y="310" fill="#7DD3FC" font-family="Arial, sans-serif" font-size="11" letter-spacing="1.4">VALIDATE</text>
  <text x="784" y="338" fill="#FFFFFF" font-family="Arial, sans-serif" font-size="15" font-weight="700">Check handoff fields</text>

  <rect x="474" y="470" width="210" height="94" rx="22" fill="#0E1B2C" stroke="#223449"/>
  <text x="498" y="506" fill="#86EFAC" font-family="Arial, sans-serif" font-size="11" letter-spacing="1.4">ROUTE</text>
  <text x="498" y="534" fill="#FFFFFF" font-family="Arial, sans-serif" font-size="15" font-weight="700">Assign implementation pod</text>
  <text x="498" y="556" fill="#94A3B8" font-family="Arial, sans-serif" font-size="12">Region, segment, and product line</text>

  <rect x="778" y="470" width="210" height="94" rx="22" fill="#0E1B2C" stroke="#223449"/>
  <text x="802" y="506" fill="#FDE68A" font-family="Arial, sans-serif" font-size="11" letter-spacing="1.4">APPROVAL</text>
  <text x="802" y="534" fill="#FFFFFF" font-family="Arial, sans-serif" font-size="15" font-weight="700">Finance review for enterprise terms</text>
  <text x="802" y="556" fill="#94A3B8" font-family="Arial, sans-serif" font-size="12">Required if billing policy deviates</text>

  <rect x="620" y="672" width="230" height="96" rx="22" fill="#0E1B2C" stroke="#223449"/>
  <text x="644" y="708" fill="#7DD3FC" font-family="Arial, sans-serif" font-size="11" letter-spacing="1.4">DEPLOY</text>
  <text x="644" y="736" fill="#FFFFFF" font-family="Arial, sans-serif" font-size="15" font-weight="700">Launch customer kickoff sequence</text>
  <text x="644" y="758" fill="#94A3B8" font-family="Arial, sans-serif" font-size="12">Create tasks, alerts, and reporting hooks</text>

  <path d="M654 317H760" stroke="url(#accent)" stroke-width="8" stroke-linecap="round"/>
  <path d="M850 358V470" stroke="url(#accent)" stroke-width="8" stroke-linecap="round"/>
  <path d="M578 358V470" stroke="url(#accent)" stroke-width="8" stroke-linecap="round"/>
  <path d="M684 516H778" stroke="url(#accent)" stroke-width="8" stroke-linecap="round"/>
  <path d="M734 564V672" stroke="url(#accent)" stroke-width="8" stroke-linecap="round"/>

  <circle cx="760" cy="317" r="8" fill="#67E8F9"/>
  <circle cx="850" cy="470" r="8" fill="#67E8F9"/>
  <circle cx="578" cy="470" r="8" fill="#67E8F9"/>
  <circle cx="734" cy="672" r="8" fill="#67E8F9"/>

  <rect x="1224" y="220" width="276" height="144" rx="22" fill="#0A1322" stroke="#1A2A3F"/>
  <text x="1248" y="252" fill="#7DD3FC" font-family="Arial, sans-serif" font-size="11" letter-spacing="1.6">DEPLOYMENT STATUS</text>
  <text x="1248" y="290" fill="#FFFFFF" font-family="Arial, sans-serif" font-size="34" font-weight="700">Draft</text>
  <rect x="1248" y="310" width="120" height="12" rx="6" fill="#122135"/>
  <rect x="1248" y="310" width="82" height="12" rx="6" fill="url(#accent)"/>
  <text x="1248" y="342" fill="#94A3B8" font-family="Arial, sans-serif" font-size="13">4 reviews remaining before release</text>

  <rect x="1224" y="386" width="276" height="186" rx="22" fill="#0A1322" stroke="#1A2A3F"/>
  <text x="1248" y="418" fill="#86EFAC" font-family="Arial, sans-serif" font-size="11" letter-spacing="1.6">POLICY CHECKS</text>
  <rect x="1248" y="446" width="228" height="36" rx="12" fill="#0E1B2C"/>
  <text x="1266" y="468" fill="#E2E8F0" font-family="Arial, sans-serif" font-size="13">SLA timer configured</text>
  <rect x="1248" y="494" width="228" height="36" rx="12" fill="#0E1B2C"/>
  <text x="1266" y="516" fill="#E2E8F0" font-family="Arial, sans-serif" font-size="13">Owner fallback defined</text>
  <rect x="1248" y="542" width="228" height="36" rx="12" fill="#0E1B2C"/>
  <text x="1266" y="564" fill="#E2E8F0" font-family="Arial, sans-serif" font-size="13">Finance approval required</text>

  <rect x="1224" y="596" width="276" height="174" rx="22" fill="#0A1322" stroke="#1A2A3F"/>
  <text x="1248" y="628" fill="#FDE68A" font-family="Arial, sans-serif" font-size="11" letter-spacing="1.6">CHANGE BRIEF</text>
  <text x="1248" y="660" fill="#FFFFFF" font-family="Arial, sans-serif" font-size="14" font-weight="700">Predicted effect of new routing rule</text>
  <text x="1248" y="686" fill="#94A3B8" font-family="Arial, sans-serif" font-size="12">Estimated reduction in first-week reassignment volume</text>
  <text x="1248" y="738" fill="#FFFFFF" font-family="Arial, sans-serif" font-size="42" font-weight="700">-18%</text>
  <text x="1368" y="738" fill="#94A3B8" font-family="Arial, sans-serif" font-size="15">handoff churn</text>

  <rect x="1224" y="794" width="276" height="140" rx="22" fill="#0A1322" stroke="#1A2A3F"/>
  <text x="1248" y="826" fill="#7DD3FC" font-family="Arial, sans-serif" font-size="11" letter-spacing="1.6">RELEASE ACTIONS</text>
  <rect x="1248" y="854" width="228" height="42" rx="14" fill="#38BDF8" fill-opacity="0.16"/>
  <text x="1312" y="880" fill="#CFFAFE" font-family="Arial, sans-serif" font-size="13" font-weight="700">Request approval</text>
</svg>
